<?xml version="1.0" encoding="UTF-8" standalone="no"?>
<!DOCTYPE svg PUBLIC "-//W3C//DTD SVG 1.1//EN"
 "http://www.w3.org/Graphics/SVG/1.1/DTD/svg11.dtd">
<!-- Generated by graphviz version 2.40.1 (0)
 -->
<!-- Title: 20209013 Pages: 1 -->
<svg width="1245pt" height="726pt"
 viewBox="0.00 0.00 1245.18 726.32" xmlns="http://www.w3.org/2000/svg" xmlns:xlink="http://www.w3.org/1999/xlink">
<g id="graph0" class="graph" transform="scale(1 1) rotate(0) translate(4 722.3229)">
<title>20209013</title>
<polygon fill="#dbdbdb" stroke="transparent" points="-4,4 -4,-722.3229 1241.1787,-722.3229 1241.1787,4 -4,4"/>
<!-- top -->
<!-- 4 -->
<g id="node2" class="node">
<title>4</title>
<ellipse fill="none" stroke="#000000" cx="348.3173" cy="-612.796" rx="76.2353" ry="32.5538"/>
<text text-anchor="start" x="304.3173" y="-618.596" font-family="helvetica, arial, sans-serif" font-size="14.00" fill="#000000">_almost_a_1</text>
<text text-anchor="start" x="323.3173" y="-599.596" font-family="helvetica, arial, sans-serif" font-size="14.00" fill="#000000">〈23:29〉</text>
</g>
<!-- top&#45;&gt;4 -->
<g id="edge1" class="edge">
<title>top&#45;&gt;4</title>
<path fill="none" stroke="#000000" d="M348.3173,-682.1873C348.3173,-674.3916 348.3173,-664.9208 348.3173,-655.5144"/>
<polygon fill="#000000" stroke="#000000" points="351.8174,-655.415 348.3173,-645.415 344.8174,-655.4151 351.8174,-655.415"/>
</g>
<!-- 5 -->
<g id="node7" class="node">
<title>5</title>
<ellipse fill="none" stroke="#000000" cx="348.3173" cy="-496.7422" rx="104.8038" ry="32.5538"/>
<text text-anchor="start" x="284.3173" y="-502.5422" font-family="helvetica, arial, sans-serif" font-size="14.00" fill="#000000">_impossible_a_for</text>
<text text-anchor="start" x="323.3173" y="-483.5422" font-family="helvetica, arial, sans-serif" font-size="14.00" fill="#000000">〈30:40〉</text>
</g>
<!-- 4&#45;&gt;5 -->
<g id="edge8" class="edge">
<title>4&#45;&gt;5</title>
<path fill="none" stroke="#000000" d="M348.3173,-580.1597C348.3173,-567.6751 348.3173,-553.2373 348.3173,-539.9184"/>
<polygon fill="#000000" stroke="#000000" points="351.8174,-539.5356 348.3173,-529.5356 344.8174,-539.5357 351.8174,-539.5356"/>
<text text-anchor="middle" x="369.3173" y="-551.0691" font-family="helvetica, arial, sans-serif" font-size="14.00" fill="#000000">ARG1</text>
</g>
<!-- 0 -->
<g id="node3" class="node">
<title>0</title>
<ellipse fill="none" stroke="#000000" cx="218.3173" cy="-380.6884" rx="37.4533" ry="32.5538"/>
<text text-anchor="start" x="202.3173" y="-386.4884" font-family="helvetica, arial, sans-serif" font-size="14.00" fill="#000000">_a_q</text>
<text text-anchor="start" x="202.8173" y="-367.4884" font-family="helvetica, arial, sans-serif" font-size="14.00" fill="#000000">〈0:1〉</text>
</g>
<!-- 3 -->
<g id="node6" class="node">
<title>3</title>
<ellipse fill="none" stroke="#000000" cx="218.3173" cy="-264.6346" rx="93.1765" ry="32.5538"/>
<text text-anchor="start" x="162.3173" y="-270.4346" font-family="helvetica, arial, sans-serif" font-size="14.00" fill="#000000">_technique_n_1</text>
<text text-anchor="start" x="193.3173" y="-251.4346" font-family="helvetica, arial, sans-serif" font-size="14.00" fill="#000000">〈10:19〉</text>
</g>
<!-- 0&#45;&gt;3 -->
<g id="edge15" class="edge">
<title>0&#45;&gt;3</title>
<path fill="none" stroke="#000000" d="M218.3173,-348.0521C218.3173,-335.5675 218.3173,-321.1296 218.3173,-307.8108"/>
<polygon fill="#000000" stroke="#000000" points="221.8174,-307.428 218.3173,-297.428 214.8174,-307.428 221.8174,-307.428"/>
<text text-anchor="middle" x="229.3173" y="-318.9615" font-family="helvetica, arial, sans-serif" font-size="14.00" fill="#000000">BV</text>
</g>
<!-- 1 -->
<g id="node4" class="node">
<title>1</title>
<ellipse fill="none" stroke="#000000" cx="81.3173" cy="-380.6884" rx="81.135" ry="32.5538"/>
<text text-anchor="start" x="34.3173" y="-386.4884" font-family="helvetica, arial, sans-serif" font-size="14.00" fill="#000000">_similar_a_to</text>
<text text-anchor="start" x="65.8173" y="-367.4884" font-family="helvetica, arial, sans-serif" font-size="14.00" fill="#000000">〈2:9〉</text>
</g>
<!-- 1&#45;&gt;3 -->
<g id="edge18" class="edge">
<title>1&#45;&gt;3</title>
<path fill="none" stroke="#000000" d="M116.2426,-351.1028C134.0799,-335.9927 155.9524,-317.4643 174.8689,-301.44"/>
<polygon fill="#000000" stroke="#000000" points="177.1331,-304.1091 182.5011,-294.9747 172.6085,-298.7678 177.1331,-304.1091"/>
<text text-anchor="middle" x="179.3173" y="-318.9615" font-family="helvetica, arial, sans-serif" font-size="14.00" fill="#000000">ARG1</text>
</g>
<!-- 2 -->
<g id="node5" class="node">
<title>2</title>
<ellipse fill="none" stroke="#000000" cx="81.3173" cy="-496.7422" rx="42.3529" ry="32.5538"/>
<text text-anchor="start" x="61.3173" y="-502.5422" font-family="helvetica, arial, sans-serif" font-size="14.00" fill="#000000">comp</text>
<text text-anchor="start" x="65.3173" y="-483.5422" font-family="helvetica, arial, sans-serif" font-size="14.00" fill="#000000">〈2:9〉</text>
</g>
<!-- 2&#45;&gt;1 -->
<g id="edge5" class="edge">
<title>2&#45;&gt;1</title>
<path fill="none" stroke="#000000" d="M81.3173,-464.1059C81.3173,-451.6213 81.3173,-437.1834 81.3173,-423.8646"/>
<polygon fill="#000000" stroke="#000000" points="84.8174,-423.4818 81.3173,-413.4818 77.8174,-423.4819 84.8174,-423.4818"/>
<text text-anchor="middle" x="102.3173" y="-435.0153" font-family="helvetica, arial, sans-serif" font-size="14.00" fill="#000000">ARG1</text>
</g>
<!-- 6 -->
<g id="node8" class="node">
<title>6</title>
<ellipse fill="none" stroke="#000000" cx="348.3173" cy="-380.6884" rx="74.4932" ry="32.5538"/>
<text text-anchor="start" x="306.3173" y="-386.4884" font-family="helvetica, arial, sans-serif" font-size="14.00" fill="#000000">_apply_v_to</text>
<text text-anchor="start" x="323.8173" y="-367.4884" font-family="helvetica, arial, sans-serif" font-size="14.00" fill="#000000">〈44:49〉</text>
</g>
<!-- 5&#45;&gt;6 -->
<g id="edge6" class="edge">
<title>5&#45;&gt;6</title>
<path fill="none" stroke="#000000" d="M348.3173,-464.1059C348.3173,-451.6213 348.3173,-437.1834 348.3173,-423.8646"/>
<polygon fill="#000000" stroke="#000000" points="351.8174,-423.4818 348.3173,-413.4818 344.8174,-423.4819 351.8174,-423.4818"/>
<text text-anchor="middle" x="369.3173" y="-435.0153" font-family="helvetica, arial, sans-serif" font-size="14.00" fill="#000000">ARG1</text>
</g>
<!-- 6&#45;&gt;3 -->
<g id="edge2" class="edge">
<title>6&#45;&gt;3</title>
<path fill="none" stroke="#000000" d="M315.5128,-351.4031C298.664,-336.3619 277.9541,-317.8737 259.9865,-301.8336"/>
<polygon fill="#000000" stroke="#000000" points="262.264,-299.175 252.4732,-295.1263 257.6023,-304.3969 262.264,-299.175"/>
<text text-anchor="middle" x="312.3173" y="-318.9615" font-family="helvetica, arial, sans-serif" font-size="14.00" fill="#000000">ARG2</text>
</g>
<!-- 9 -->
<g id="node11" class="node">
<title>9</title>
<ellipse fill="none" stroke="#000000" cx="546.3173" cy="-264.6346" rx="65.5227" ry="32.5538"/>
<text text-anchor="start" x="510.3173" y="-270.4346" font-family="helvetica, arial, sans-serif" font-size="14.00" fill="#000000">_crop_n_1</text>
<text text-anchor="start" x="521.8173" y="-251.4346" font-family="helvetica, arial, sans-serif" font-size="14.00" fill="#000000">〈59:65〉</text>
</g>
<!-- 6&#45;&gt;9 -->
<g id="edge16" class="edge">
<title>6&#45;&gt;9</title>
<path fill="none" stroke="#000000" d="M393.2465,-354.354C423.4915,-336.6265 463.4488,-313.2063 494.9547,-294.7397"/>
<polygon fill="#000000" stroke="#000000" points="496.7444,-297.7477 503.6018,-289.6714 493.2047,-291.7086 496.7444,-297.7477"/>
<text text-anchor="middle" x="480.3173" y="-318.9615" font-family="helvetica, arial, sans-serif" font-size="14.00" fill="#000000">ARG3</text>
</g>
<!-- 7 -->
<g id="node9" class="node">
<title>7</title>
<ellipse fill="none" stroke="#000000" cx="496.3173" cy="-380.6884" rx="55.7232" ry="32.5538"/>
<text text-anchor="start" x="472.3173" y="-386.4884" font-family="helvetica, arial, sans-serif" font-size="14.00" fill="#000000">udef_q</text>
<text text-anchor="start" x="467.3173" y="-367.4884" font-family="helvetica, arial, sans-serif" font-size="14.00" fill="#000000">〈53:100〉</text>
</g>
<!-- 7&#45;&gt;9 -->
<g id="edge13" class="edge">
<title>7&#45;&gt;9</title>
<path fill="none" stroke="#000000" d="M509.98,-348.9762C515.6653,-335.7802 522.3429,-320.2808 528.4123,-306.1933"/>
<polygon fill="#000000" stroke="#000000" points="531.7549,-307.2805 532.4973,-296.7117 525.3262,-304.5107 531.7549,-307.2805"/>
<text text-anchor="middle" x="535.3173" y="-318.9615" font-family="helvetica, arial, sans-serif" font-size="14.00" fill="#000000">BV</text>
</g>
<!-- 8 -->
<g id="node10" class="node">
<title>8</title>
<ellipse fill="none" stroke="#000000" cx="640.3173" cy="-380.6884" rx="70.0071" ry="32.5538"/>
<text text-anchor="start" x="601.3173" y="-386.4884" font-family="helvetica, arial, sans-serif" font-size="14.00" fill="#000000">_other_a_1</text>
<text text-anchor="start" x="615.8173" y="-367.4884" font-family="helvetica, arial, sans-serif" font-size="14.00" fill="#000000">〈53:58〉</text>
</g>
<!-- 8&#45;&gt;9 -->
<g id="edge4" class="edge">
<title>8&#45;&gt;9</title>
<path fill="none" stroke="#000000" d="M615.6199,-350.1966C603.8543,-335.6706 589.6612,-318.1477 577.1915,-302.7524"/>
<polygon fill="#000000" stroke="#000000" points="579.8636,-300.4905 570.8497,-294.9227 574.4241,-304.8964 579.8636,-300.4905"/>
<text text-anchor="middle" x="620.3173" y="-318.9615" font-family="helvetica, arial, sans-serif" font-size="14.00" fill="#000000">ARG1</text>
</g>
<!-- 10 -->
<g id="node12" class="node">
<title>10</title>
<ellipse fill="none" stroke="#000000" cx="803.3173" cy="-380.6884" rx="74.9067" ry="32.5538"/>
<text text-anchor="start" x="760.3173" y="-386.4884" font-family="helvetica, arial, sans-serif" font-size="14.00" fill="#000000">_such+as_p</text>
<text text-anchor="start" x="778.3173" y="-367.4884" font-family="helvetica, arial, sans-serif" font-size="14.00" fill="#000000">〈66:73〉</text>
</g>
<!-- 10&#45;&gt;9 -->
<g id="edge12" class="edge">
<title>10&#45;&gt;9</title>
<path fill="none" stroke="#000000" d="M751.3095,-357.2032C708.7236,-337.9726 648.5148,-310.784 604.3655,-290.8475"/>
<polygon fill="#000000" stroke="#000000" points="605.7547,-287.6345 595.2004,-286.7088 602.8738,-294.0142 605.7547,-287.6345"/>
<text text-anchor="middle" x="711.3173" y="-318.9615" font-family="helvetica, arial, sans-serif" font-size="14.00" fill="#000000">ARG1</text>
</g>
<!-- 15 -->
<g id="node17" class="node">
<title>15</title>
<ellipse fill="none" stroke="#000000" cx="914.3173" cy="-264.6346" rx="79.8062" ry="32.5538"/>
<text text-anchor="start" x="868.3173" y="-270.4346" font-family="helvetica, arial, sans-serif" font-size="14.00" fill="#000000">implicit_conj</text>
<text text-anchor="start" x="885.3173" y="-251.4346" font-family="helvetica, arial, sans-serif" font-size="14.00" fill="#000000">〈82:100〉</text>
</g>
<!-- 10&#45;&gt;15 -->
<g id="edge14" class="edge">
<title>10&#45;&gt;15</title>
<path fill="none" stroke="#000000" d="M832.1915,-350.4996C846.213,-335.8397 863.2059,-318.0731 878.0881,-302.5133"/>
<polygon fill="#000000" stroke="#000000" points="880.8194,-304.7213 885.2021,-295.0754 875.7607,-299.8829 880.8194,-304.7213"/>
<text text-anchor="middle" x="887.3173" y="-318.9615" font-family="helvetica, arial, sans-serif" font-size="14.00" fill="#000000">ARG2</text>
</g>
<!-- 11 -->
<g id="node13" class="node">
<title>11</title>
<ellipse fill="none" stroke="#000000" cx="952.3173" cy="-380.6884" rx="55.7232" ry="32.5538"/>
<text text-anchor="start" x="928.3173" y="-386.4884" font-family="helvetica, arial, sans-serif" font-size="14.00" fill="#000000">udef_q</text>
<text text-anchor="start" x="923.3173" y="-367.4884" font-family="helvetica, arial, sans-serif" font-size="14.00" fill="#000000">〈74:100〉</text>
</g>
<!-- 11&#45;&gt;15 -->
<g id="edge11" class="edge">
<title>11&#45;&gt;15</title>
<path fill="none" stroke="#000000" d="M941.833,-348.669C937.5904,-335.7118 932.6335,-320.5732 928.1048,-306.7423"/>
<polygon fill="#000000" stroke="#000000" points="931.3373,-305.3668 924.8992,-296.9524 924.6849,-307.545 931.3373,-305.3668"/>
<text text-anchor="middle" x="946.3173" y="-318.9615" font-family="helvetica, arial, sans-serif" font-size="14.00" fill="#000000">BV</text>
</g>
<!-- 12 -->
<g id="node14" class="node">
<title>12</title>
<ellipse fill="none" stroke="#000000" cx="767.3173" cy="-264.6346" rx="49.4949" ry="32.5538"/>
<text text-anchor="start" x="742.8173" y="-270.4346" font-family="helvetica, arial, sans-serif" font-size="14.00" fill="#000000">udef_q</text>
<text text-anchor="start" x="742.3173" y="-251.4346" font-family="helvetica, arial, sans-serif" font-size="14.00" fill="#000000">〈74:81〉</text>
</g>
<!-- 13 -->
<g id="node15" class="node">
<title>13</title>
<ellipse fill="none" stroke="#000000" cx="778.3173" cy="-148.5807" rx="75.8212" ry="32.5538"/>
<text text-anchor="start" x="735.3173" y="-154.3807" font-family="helvetica, arial, sans-serif" font-size="14.00" fill="#000000">_cotton_n_1</text>
<text text-anchor="start" x="753.8173" y="-135.3807" font-family="helvetica, arial, sans-serif" font-size="14.00" fill="#000000">〈74:81〉</text>
</g>
<!-- 12&#45;&gt;13 -->
<g id="edge7" class="edge">
<title>12&#45;&gt;13</title>
<path fill="none" stroke="#000000" d="M770.4107,-231.9983C771.6057,-219.3901 772.9896,-204.7897 774.2623,-191.3617"/>
<polygon fill="#000000" stroke="#000000" points="777.7497,-191.6599 775.209,-181.3742 770.7809,-190.9993 777.7497,-191.6599"/>
<text text-anchor="middle" x="785.3173" y="-202.9076" font-family="helvetica, arial, sans-serif" font-size="14.00" fill="#000000">BV</text>
</g>
<!-- 14 -->
<g id="node16" class="node">
<title>14</title>
<ellipse fill="none" stroke="#000000" cx="1068.3173" cy="-264.6346" rx="55.7232" ry="32.5538"/>
<text text-anchor="start" x="1044.3173" y="-270.4346" font-family="helvetica, arial, sans-serif" font-size="14.00" fill="#000000">udef_q</text>
<text text-anchor="start" x="1039.3173" y="-251.4346" font-family="helvetica, arial, sans-serif" font-size="14.00" fill="#000000">〈82:100〉</text>
</g>
<!-- 18 -->
<g id="node20" class="node">
<title>18</title>
<ellipse fill="none" stroke="#000000" cx="1058.3173" cy="-148.5807" rx="49.4949" ry="32.5538"/>
<text text-anchor="start" x="1033.3173" y="-154.3807" font-family="helvetica, arial, sans-serif" font-size="14.00" fill="#000000">_and_c</text>
<text text-anchor="start" x="1033.3173" y="-135.3807" font-family="helvetica, arial, sans-serif" font-size="14.00" fill="#000000">〈91:94〉</text>
</g>
<!-- 14&#45;&gt;18 -->
<g id="edge20" class="edge">
<title>14&#45;&gt;18</title>
<path fill="none" stroke="#000000" d="M1065.5051,-231.9983C1064.4187,-219.3901 1063.1606,-204.7897 1062.0036,-191.3617"/>
<polygon fill="#000000" stroke="#000000" points="1065.4886,-191.0368 1061.143,-181.3742 1058.5145,-191.6378 1065.4886,-191.0368"/>
<text text-anchor="middle" x="1074.3173" y="-202.9076" font-family="helvetica, arial, sans-serif" font-size="14.00" fill="#000000">BV</text>
</g>
<!-- 15&#45;&gt;13 -->
<g id="edge10" class="edge">
<title>15&#45;&gt;13</title>
<path fill="none" stroke="#000000" d="M879.6468,-235.049C861.5248,-219.5848 839.2069,-200.5401 820.1331,-184.2637"/>
<polygon fill="#000000" stroke="#000000" points="822.3322,-181.5392 812.4534,-177.7104 817.7884,-186.864 822.3322,-181.5392"/>
<text text-anchor="middle" x="888.3173" y="-202.9076" font-family="helvetica, arial, sans-serif" font-size="14.00" fill="#000000">L&#45;INDEX</text>
</g>
<!-- 15&#45;&gt;18 -->
<g id="edge17" class="edge">
<title>15&#45;&gt;18</title>
<path fill="none" stroke="#000000" d="M948.4524,-234.8387C961.693,-223.4793 977.072,-210.5242 991.3173,-199.1076 999.5878,-192.4794 1008.5685,-185.538 1017.1878,-178.9966"/>
<polygon fill="#000000" stroke="#000000" points="1019.4317,-181.6881 1025.306,-172.8708 1015.2154,-176.1004 1019.4317,-181.6881"/>
<text text-anchor="middle" x="1024.8173" y="-202.9076" font-family="helvetica, arial, sans-serif" font-size="14.00" fill="#000000">R&#45;INDEX</text>
</g>
<!-- 16 -->
<g id="node18" class="node">
<title>16</title>
<ellipse fill="none" stroke="#000000" cx="941.3173" cy="-148.5807" rx="49.4949" ry="32.5538"/>
<text text-anchor="start" x="916.8173" y="-154.3807" font-family="helvetica, arial, sans-serif" font-size="14.00" fill="#000000">udef_q</text>
<text text-anchor="start" x="916.3173" y="-135.3807" font-family="helvetica, arial, sans-serif" font-size="14.00" fill="#000000">〈82:90〉</text>
</g>
<!-- 17 -->
<g id="node19" class="node">
<title>17</title>
<ellipse fill="none" stroke="#000000" cx="958.3173" cy="-32.5269" rx="124.4016" ry="32.5538"/>
<text text-anchor="start" x="880.3173" y="-38.3269" font-family="helvetica, arial, sans-serif" font-size="14.00" fill="#000000">_soybean_n_unknown</text>
<text text-anchor="start" x="933.3173" y="-19.3269" font-family="helvetica, arial, sans-serif" font-size="14.00" fill="#000000">〈82:90〉</text>
</g>
<!-- 16&#45;&gt;17 -->
<g id="edge19" class="edge">
<title>16&#45;&gt;17</title>
<path fill="none" stroke="#000000" d="M942.8051,-115.8005C943.5521,-105.3 944.6651,-93.6505 946.3173,-83.0538 946.7327,-80.3897 947.2148,-77.6584 947.7423,-74.9121"/>
<polygon fill="#000000" stroke="#000000" points="951.1953,-75.4986 949.8137,-64.9942 944.3431,-74.0674 951.1953,-75.4986"/>
<text text-anchor="middle" x="957.3173" y="-86.8538" font-family="helvetica, arial, sans-serif" font-size="14.00" fill="#000000">BV</text>
</g>
<!-- 18&#45;&gt;17 -->
<g id="edge9" class="edge">
<title>18&#45;&gt;17</title>
<path fill="none" stroke="#000000" d="M1025.75,-123.7402C1016.6658,-116.0275 1007.1486,-107.1493 999.3173,-98.0538 992.8837,-90.5817 986.7656,-82.0008 981.312,-73.5631"/>
<polygon fill="#000000" stroke="#000000" points="984.1507,-71.501 975.8839,-64.8745 978.214,-75.2099 984.1507,-71.501"/>
<text text-anchor="middle" x="1032.3173" y="-86.8538" font-family="helvetica, arial, sans-serif" font-size="14.00" fill="#000000">L&#45;INDEX</text>
</g>
<!-- 20 -->
<g id="node22" class="node">
<title>20</title>
<ellipse fill="none" stroke="#000000" cx="1172.3173" cy="-32.5269" rx="62.8651" ry="32.5538"/>
<text text-anchor="start" x="1138.3173" y="-38.3269" font-family="helvetica, arial, sans-serif" font-size="14.00" fill="#000000">_rice_n_1</text>
<text text-anchor="start" x="1143.3173" y="-19.3269" font-family="helvetica, arial, sans-serif" font-size="14.00" fill="#000000">〈95:100〉</text>
</g>
<!-- 18&#45;&gt;20 -->
<g id="edge3" class="edge">
<title>18&#45;&gt;20</title>
<path fill="none" stroke="#000000" d="M1076.6039,-118.3277C1084.3876,-106.6605 1094.0406,-93.6115 1104.3173,-83.0538 1110.6457,-76.5524 1117.8727,-70.2504 1125.1977,-64.4292"/>
<polygon fill="#000000" stroke="#000000" points="1127.3544,-67.1859 1133.1467,-58.3146 1123.0864,-61.6375 1127.3544,-67.1859"/>
<text text-anchor="middle" x="1137.8173" y="-86.8538" font-family="helvetica, arial, sans-serif" font-size="14.00" fill="#000000">R&#45;INDEX</text>
</g>
<!-- 19 -->
<g id="node21" class="node">
<title>19</title>
<ellipse fill="none" stroke="#000000" cx="1181.3173" cy="-148.5807" rx="55.7232" ry="32.5538"/>
<text text-anchor="start" x="1157.3173" y="-154.3807" font-family="helvetica, arial, sans-serif" font-size="14.00" fill="#000000">udef_q</text>
<text text-anchor="start" x="1152.3173" y="-135.3807" font-family="helvetica, arial, sans-serif" font-size="14.00" fill="#000000">〈95:100〉</text>
</g>
<!-- 19&#45;&gt;20 -->
<g id="edge21" class="edge">
<title>19&#45;&gt;20</title>
<path fill="none" stroke="#000000" d="M1178.7863,-115.9444C1177.8086,-103.3362 1176.6763,-88.7359 1175.635,-75.3079"/>
<polygon fill="#000000" stroke="#000000" points="1179.1232,-75.0198 1174.8604,-65.3204 1172.1442,-75.5611 1179.1232,-75.0198"/>
<text text-anchor="middle" x="1188.3173" y="-86.8538" font-family="helvetica, arial, sans-serif" font-size="14.00" fill="#000000">BV</text>
</g>
</g>
</svg>
